<?xml version="1.0" standalone="no"?>
<!DOCTYPE svg PUBLIC "-//W3C//DTD SVG 20010904//EN"
 "http://www.w3.org/TR/2001/REC-SVG-20010904/DTD/svg10.dtd">
<svg version="1.0" xmlns="http://www.w3.org/2000/svg"
 width="700.000000pt" height="700.000000pt" viewBox="0 0 700.000000 700.000000"
 preserveAspectRatio="xMidYMid meet">
<metadata>
Created by potrace 1.11, written by Peter Selinger 2001-2013
</metadata>
<g transform="translate(0.000000,700.000000) scale(0.100000,-0.100000)"
fill="#000000" stroke="none">
<path d="M5765 6135 c-49 -13 -223 -55 -385 -94 -162 -39 -545 -132 -850 -207
-305 -74 -568 -135 -585 -135 -16 0 -235 43 -485 96 -361 75 -476 103 -557
135 -135 54 -251 79 -398 86 -66 3 -164 15 -218 26 -54 11 -108 18 -120 16
-24 -5 -1415 -859 -1454 -893 -23 -19 -36 -108 -319 -2144 -272 -1963 -293
-2126 -279 -2147 25 -38 58 -40 122 -6 32 16 472 255 977 531 506 276 925 501
932 501 14 0 162 -54 1529 -556 446 -163 826 -299 845 -301 24 -2 392 96 1189
320 1047 293 1156 325 1174 349 l19 26 -476 2174 c-263 1195 -482 2185 -487
2199 -10 25 -47 50 -72 48 -7 0 -52 -11 -102 -24z m59 -152 c18 -60 916 -4169
912 -4177 -2 -6 -64 -28 -137 -48 -74 -20 -569 -159 -1100 -307 l-966 -270
-384 140 c-211 77 -555 203 -764 279 -209 76 -571 209 -805 295 -253 93 -435
155 -450 153 -23 -4 -383 -197 -1495 -804 -203 -111 -371 -201 -371 -200 -3 2
555 4010 560 4021 3 9 627 401 657 413 4 2 -8 -32 -26 -75 -77 -178 -113 -356
-122 -599 -9 -249 20 -428 112 -693 146 -417 447 -923 835 -1401 43 -52 80
-104 84 -116 11 -34 49 -44 176 -44 l120 0 0 -114 c0 -112 1 -115 26 -135 l27
-21 1399 0 1399 0 24 25 25 24 0 1134 0 1134 -26 24 c-24 22 -34 24 -155 27
l-129 4 0 112 c0 102 -2 115 -21 132 -20 18 -51 19 -854 22 l-834 2 -6 58
c-32 269 -120 492 -275 694 -18 23 -19 26 -3 22 10 -2 171 -36 357 -75 l339
-70 201 49 c111 27 352 86 536 131 184 45 508 123 720 175 212 52 390 95 397
95 6 1 14 -7 17 -16z m-734 -2253 l0 -1050 -1255 0 c-690 0 -1255 2 -1255 5 0
3 23 35 52 70 l52 65 1121 0 c1120 0 1122 0 1149 21 15 12 26 30 26 45 0 18
-103 132 -405 453 -223 237 -414 435 -424 441 -11 5 -33 10 -49 10 -31 0 -17
11 -406 -325 -108 -93 -199 -169 -201 -167 -3 1 -55 57 -117 125 -61 67 -125
136 -140 153 l-28 30 75 155 c166 344 248 623 262 897 l6 122 769 0 768 0 0
-1050z m300 -270 l0 -1050 -1280 0 -1280 0 0 70 0 70 1184 0 c1182 0 1183 0
1210 21 l26 20 0 960 0 959 70 0 70 0 0 -1050z m-981 -170 c165 -176 301 -322
301 -325 0 -3 -423 -5 -940 -5 -517 0 -940 2 -940 5 0 19 224 385 292 478 12
15 21 8 100 -80 207 -232 219 -243 265 -243 45 0 52 6 498 394 61 52 113 96
116 96 4 0 142 -144 308 -320z"/>
</g>
</svg>
